<svg xmlns="http://www.w3.org/2000/svg" width="168" height="102" viewBox="0 0 168 102">
  <defs>
    <style>
      .cls-1 {
        fill: #fff;
        fill-rule: evenodd;
      }
    </style>
  </defs>
  <path class="cls-1" d="M35.327,58.667h3.621l2.4-9.312h2.231c0.871,0,1.221.651,0.985,1.566l-2,7.747h3.62l2.178-8.438c0.52-2.017-.43-3.826-3.309-3.826H38.492L35.327,58.667h0Zm123.006,4.7H152.8l0.794-3.073,4.97-.012a1.531,1.531,0,0,0,1.451-.924l0.165-.689h-2.913c-2.879,0-3.829-1.81-3.309-3.826l1.056-4.089c1.093-4.233,3.849-4.349,4.742-4.349H167l-3.142,12.243c-0.863,3.364-2.233,4.719-5.525,4.719h0Zm0.3-12.6-0.874,3.386c-0.235.916,0.114,1.566,0.985,1.566h2.194l1.664-6.493h-2.217a2.087,2.087,0,0,0-1.752,1.541h0Zm-44.111,12.6H109l0.794-3.073,4.97-.012a1.53,1.53,0,0,0,1.451-.924l0.165-.689h-2.913c-2.878,0-3.828-1.81-3.308-3.826l1.056-4.089c1.092-4.233,3.848-4.349,4.742-4.349h7.24l-3.143,12.243c-0.863,3.364-2.233,4.719-5.525,4.719h0Zm0.3-12.6-0.874,3.386c-0.236.916,0.113,1.566,0.985,1.566h2.194l1.663-6.493h-2.216a2.085,2.085,0,0,0-1.752,1.541h0ZM76.98,41.547h3.674L79.411,46.4h2.913c2.879,0,3.829,1.809,3.309,3.826l-1.056,4.089c-1.093,4.235-3.848,4.348-4.742,4.348h-7.24l4.387-17.12h0Zm3.978,12.761,0.874-3.387c0.236-.915-0.113-1.566-0.985-1.566H78.654L76.99,55.849h2.217a2.087,2.087,0,0,0,1.752-1.542h0Zm42.28,4.36h3.629l1.842-7.276a2.2,2.2,0,0,1,2.26-2.036h1.372L133.09,46.4h-2.109a5.491,5.491,0,0,0-5.7,4.2l-2.042,8.065h0Zm-22.817,0h3.629l1.842-7.276a2.2,2.2,0,0,1,2.26-2.036h1.372l0.748-2.952h-2.109a5.49,5.49,0,0,0-5.7,4.2l-2.042,8.065h0Zm-36.825,0h3.629l1.842-7.276a2.2,2.2,0,0,1,2.26-2.036H72.7L73.447,46.4H71.339a5.49,5.49,0,0,0-5.7,4.2L63.6,58.667h0ZM100.335,46.4h-3.62l-2.4,9.312H92.082c-0.872,0-1.221-.65-0.985-1.566l2-7.746H89.475L87.3,54.841c-0.52,2.016.43,3.826,3.309,3.826h6.564L100.335,46.4h0Zm35.532,12.264L139.038,46.4h-3.62l-3.149,12.264h3.6ZM63.366,46.4h-3.62l-2.4,9.312H55.112c-0.872,0-1.221-.65-0.985-1.566l2-7.746h-3.62l-2.177,8.438c-0.52,2.016.43,3.826,3.309,3.826H60.2L63.366,46.4h0Zm75.476-4.856a2.549,2.549,0,0,0-2.421,1.5l-0.492,1.909h3.62l0.878-3.405-1.585,0h0Zm-76.347,0a2.548,2.548,0,0,0-2.42,1.5l-0.493,1.909H63.2l0.878-3.405-1.585,0h0Zm-5.792,0a2.549,2.549,0,0,0-2.42,1.5L53.79,44.953h3.62l0.878-3.405-1.586,0h0Zm82.456,17.121h3.62l2.4-9.312h2.231c0.872,0,1.222.651,0.985,1.566l-2,7.747h3.621l2.177-8.438c0.52-2.017-.429-3.826-3.309-3.826h-6.564l-3.165,12.264h0ZM23.754,76.257H27.6a0.635,0.635,0,0,1,.688.687v1.407H33.38l14.286-14.3H53.8l-17.874,17.9a1.978,1.978,0,0,1-1.5.646H24.084a1.411,1.411,0,0,1-1.54-1.377V77.137a1,1,0,0,1,1.21-.88h0ZM9.839,90.156V79.811a1.987,1.987,0,0,1,.56-1.37l7.717-7.6a1.818,1.818,0,0,1,1.245-.561l2.178,0.061-4.668,4.426a1.984,1.984,0,0,0-.436,1.433V86.638L9.777,93.459c-0.481.493-.39,1.121,0.311,1.121h5.788a2.712,2.712,0,0,0,2.3-1,1.733,1.733,0,0,1,0,2.057l-4.606,4.423a3.688,3.688,0,0,1-2.489.936H2.246c-1.3,0-1.659-1.441-.746-2.368l8.34-8.476h0ZM26.921,68.526H28.87a1.922,1.922,0,0,0,1.333-.411l3.589-3.491a0.957,0.957,0,0,0-.718-1.644H22.921l-8.614-8.626a2.247,2.247,0,0,1-.615-1.539V39.977a1.324,1.324,0,0,0-.308-0.924L10.41,36.075a1.384,1.384,0,0,1,0-2.054l12-11.912a2.24,2.24,0,0,0,.616-1.541V16.563a2.79,2.79,0,0,1,.82-2.464l6.871-6.88c0.613-.615.8-0.542,1.439,0l3.176,2.669h5.333A1.828,1.828,0,0,0,42,9.374L43.843,7.32a1.832,1.832,0,0,1,1.333-.513h6.358a1.9,1.9,0,0,1,2.154,2.156v3.185l7.384,7.187H71.738a1.991,1.991,0,0,1,1.333.617l3.59,3.594a1.119,1.119,0,0,0,1.641,0l7.9-7.8a1.541,1.541,0,0,1,2.359,0l4,4a1.768,1.768,0,0,1,.411,1.233v4.827a0.95,0.95,0,0,1-1.149,1.13H89.173a1.049,1.049,0,0,0-1.128,1.129v4.313l-6.2,6.214h5.077a2.093,2.093,0,0,0,1.436-.564L94.3,32.07a2.685,2.685,0,0,0,.922-1.747V25.481c0-1.032.334-1.272,1.111-1.272H98.4a1.514,1.514,0,0,0,1.677-1.425V18.923a2.052,2.052,0,0,0-.754-1.332L91.839,10.3a2.245,2.245,0,0,0-3.282,0l-7.487,7.5c-0.915.915-1.421,0.8-2.368,0l-2.555-2.158a1.731,1.731,0,0,0-1.026-.513H62.508L56.239,9.012a1.463,1.463,0,0,1-.5-0.973V2.787A1.627,1.627,0,0,0,53.928,1H44.458a3.081,3.081,0,0,0-1.846,1.085l-3.9,3.6H33.69l-4.1-3.8a1.251,1.251,0,0,0-1.744,0l-7.589,7.5a3.854,3.854,0,0,0-1.026,2.67v4.994L5.795,30.632c-1.2,1.218-1.331,2.281-.079,3.493l2.3,2.222V52.2a3.927,3.927,0,0,0,.857,2.772l9.469,9.385a2.619,2.619,0,0,0,1.784.79l8.745-.007a0.617,0.617,0,0,1,.41,1.129l-2.359,2.259h0Z"/>
</svg>
